<?xml version="1.0" encoding="UTF-8"?><svg id="a" xmlns="http://www.w3.org/2000/svg" viewBox="0 0 21 21"><defs><style>.cls-1{fill:#55a619;}</style></defs><g id="b"><path id="c" class="cls-1" d="M20.07,9h-1.98c-.14,0-.26-.1-.29-.23-.19-.78-.49-1.52-.92-2.2-.07-.12-.06-.27,.04-.37l1.4-1.4c.36-.36,.36-.95,0-1.31h0l-.81-.8c-.36-.36-.95-.36-1.31,0h0l-1.4,1.4c-.1,.1-.25,.11-.37,.04-.68-.42-1.42-.73-2.2-.91-.14-.03-.23-.15-.23-.29V.93C12,.42,11.58,0,11.07,0h-1.14c-.51,0-.93,.42-.93,.93v1.98c0,.14-.1,.26-.23,.29-.78,.19-1.52,.49-2.2,.91-.12,.07-.27,.06-.37-.04l-1.4-1.4c-.36-.36-.95-.36-1.31,0h0l-.8,.8c-.36,.36-.36,.95,0,1.31h0l1.4,1.4c.1,.1,.11,.25,.04,.37-.42,.68-.73,1.42-.91,2.2-.03,.14-.15,.24-.29,.24H.93C.42,9,0,9.42,0,9.93v1.14c0,.51,.42,.93,.93,.93h1.98c.14,0,.26,.1,.29,.23,.19,.78,.49,1.52,.91,2.2,.07,.12,.06,.27-.04,.37l-1.4,1.4c-.36,.36-.36,.95,0,1.31h0l.8,.81c.36,.36,.95,.36,1.31,0h0l1.4-1.4c.1-.1,.25-.11,.37-.04,.68,.42,1.42,.73,2.2,.92,.14,.03,.24,.15,.24,.29v1.98c0,.51,.42,.93,.93,.93h1.14c.51,0,.93-.42,.93-.93v-1.98c0-.14,.1-.26,.23-.29,.78-.19,1.52-.49,2.2-.92,.12-.07,.27-.06,.37,.04l1.4,1.4c.36,.36,.95,.36,1.31,0h0l.81-.81c.36-.36,.36-.95,0-1.31h0l-1.4-1.4c-.1-.1-.11-.25-.04-.37,.42-.68,.73-1.42,.92-2.2,.03-.14,.15-.23,.29-.23h1.98c.51,0,.93-.42,.93-.93v-1.14c0-.51-.42-.93-.93-.93m-9.57,6c-2.49,0-4.5-2.01-4.5-4.5s2.01-4.5,4.5-4.5,4.5,2.01,4.5,4.5-2.01,4.5-4.5,4.5"/></g></svg>