<svg xmlns="http://www.w3.org/2000/svg" xmlns:xlink="http://www.w3.org/1999/xlink" width="21" height="21" viewBox="0 0 21 21">
  <defs>
    <clipPath id="clip-path">
      <rect id="長方形_893" data-name="長方形 893" width="21" height="21" fill="none"/>
    </clipPath>
  </defs>
  <g id="グループ_7492" data-name="グループ 7492" clip-path="url(#clip-path)">
    <path id="パス_918" data-name="パス 918" d="M20.069,9H18.086a.3.3,0,0,1-.288-.233,7.451,7.451,0,0,0-.915-2.2.3.3,0,0,1,.04-.368l1.4-1.4a.929.929,0,0,0,0-1.316l-.805-.8a.929.929,0,0,0-1.316,0l-1.4,1.4a.3.3,0,0,1-.368.04,7.451,7.451,0,0,0-2.2-.915A.3.3,0,0,1,12,2.914V.931A.931.931,0,0,0,11.069,0H9.931A.931.931,0,0,0,9,.931V2.914a.3.3,0,0,1-.233.288,7.451,7.451,0,0,0-2.2.915.3.3,0,0,1-.368-.04l-1.4-1.4a.929.929,0,0,0-1.316,0l-.8.8a.929.929,0,0,0,0,1.316l1.4,1.4a.3.3,0,0,1,.04.368,7.451,7.451,0,0,0-.915,2.2A.3.3,0,0,1,2.914,9H.931A.931.931,0,0,0,0,9.931v1.138A.931.931,0,0,0,.931,12H2.914a.3.3,0,0,1,.288.233,7.451,7.451,0,0,0,.915,2.2.3.3,0,0,1-.04.368l-1.4,1.4a.929.929,0,0,0,0,1.316l.8.805a.929.929,0,0,0,1.316,0l1.4-1.4a.3.3,0,0,1,.368-.04,7.451,7.451,0,0,0,2.2.915A.3.3,0,0,1,9,18.086v1.983A.931.931,0,0,0,9.931,21h1.138A.931.931,0,0,0,12,20.069V18.086a.3.3,0,0,1,.233-.288,7.451,7.451,0,0,0,2.2-.915.3.3,0,0,1,.368.04l1.4,1.4a.929.929,0,0,0,1.316,0l.805-.805a.929.929,0,0,0,0-1.316l-1.4-1.4a.3.3,0,0,1-.04-.368,7.451,7.451,0,0,0,.915-2.2A.3.3,0,0,1,18.086,12h1.983A.931.931,0,0,0,21,11.069V9.931A.931.931,0,0,0,20.069,9M10.5,15A4.5,4.5,0,1,1,15,10.5,4.5,4.5,0,0,1,10.5,15" fill="#55a619"/>
  </g>
</svg>
