<?xml version="1.0" encoding="UTF-8"?><svg id="a" xmlns="http://www.w3.org/2000/svg" viewBox="0 0 18 18"><defs><style>.cls-1{fill:#55a619;}</style></defs><g id="b"><path class="cls-1" d="M12.47,0H2.69C1.21,0,0,1.21,0,2.69V15.31c0,1.48,1.21,2.69,2.69,2.69H15.31c1.48,0,2.69-1.21,2.69-2.69V5.53L12.47,0ZM5.55,16v-5.11h6.89v5.11H5.55Zm10.45-.69c0,.38-.31,.69-.69,.69h-.86v-7.11H3.55v7.11h-.86c-.38,0-.69-.31-.69-.69V2.69c0-.38,.31-.69,.69-.69h.86V6.44h6.33c.55,0,1-.45,1-1s-.45-1-1-1H5.56V2h6.08l4.36,4.36V15.31Z"/></g></svg>