<svg xmlns="http://www.w3.org/2000/svg" width="12" height="12" viewBox="0 0 12 12"><defs><style>.a{fill:#55a619;}</style></defs><g transform="translate(-125 -598)"><path class="a" d="M12,6.853a1.51,1.51,0,0,0-.444-1.071L6.413.639A1.515,1.515,0,0,0,5.418.2L1.566,0l.028,0L1.515,0A1.516,1.516,0,0,0,0,1.516c0,.025,0,.051,0,.077L.2,5.419a1.518,1.518,0,0,0,.442.994l5.144,5.144a1.515,1.515,0,0,0,2.142,0l3.632-3.632-.279-.279.28.279A1.514,1.514,0,0,0,12,6.853M7.366,11a.724.724,0,0,1-1.025,0L1.2,5.854a.727.727,0,0,1-.211-.476L.791,1.553V1.516A.725.725,0,0,1,1.515.79h.035L5.378.986a.724.724,0,0,1,.476.211L11,6.341a.725.725,0,0,1,0,1.025h0Z" transform="translate(125 598)"/><path class="a" d="M94.367,94.388a.922.922,0,1,0,1.3,0,.922.922,0,0,0-1.3,0" transform="translate(33.109 506.088)"/></g></svg>