<?xml version="1.0" encoding="UTF-8"?><svg id="a" xmlns="http://www.w3.org/2000/svg" viewBox="0 0 16.77 17.83"><defs><style>.cls-1{fill:#55a619;}</style></defs><g id="b"><path class="cls-1" d="M14.03,1.6h-.43V.65c0-.36-.29-.65-.65-.65s-.65,.29-.65,.65v.95H4.5V.65c0-.36-.29-.65-.65-.65s-.65,.29-.65,.65v.95h-.47C1.23,1.6,0,2.83,0,4.33V15.1c0,1.51,1.23,2.73,2.73,2.73H14.03c1.51,0,2.73-1.23,2.73-2.73V4.33c0-1.51-1.23-2.73-2.73-2.73ZM2.73,2.9h.49c.06,.3,.31,.53,.63,.53s.57-.23,.63-.53h7.85c.06,.3,.31,.53,.63,.53s.57-.23,.63-.53h.46c.79,0,1.43,.64,1.43,1.43v1.53H1.3v-1.53c0-.79,.64-1.43,1.43-1.43Zm11.3,13.63H2.73c-.79,0-1.43-.64-1.43-1.43V7.17H15.47v7.93c0,.79-.64,1.43-1.43,1.43Z"/><path id="h" class="cls-1" d="M4.59,10.25h-.95c-.18,0-.33-.15-.33-.33h0v-.95c0-.18,.15-.33,.33-.33h.95c.18,0,.33,.15,.33,.33h0v.94c0,.18-.15,.33-.33,.33h0"/><path id="c" class="cls-1" d="M13.12,10.25h-.94c-.18,0-.33-.15-.33-.33h0v-.95c0-.18,.15-.33,.33-.33h.95c.18,0,.33,.15,.33,.33h0v.94c0,.18-.15,.33-.33,.33h0"/><path id="d" class="cls-1" d="M8.86,10.25h-.95c-.18,0-.33-.15-.33-.33h0v-.95c0-.18,.15-.33,.33-.33h.95c.18,0,.33,.15,.33,.33h0v.94c0,.18-.15,.33-.33,.33h0"/><path id="e" class="cls-1" d="M4.59,14.52h-.95c-.18,0-.33-.15-.33-.33h0v-.95c0-.18,.15-.33,.33-.33h.95c.18,0,.33,.15,.33,.33h0v.94c0,.18-.15,.33-.33,.33h0"/><path id="f" class="cls-1" d="M13.12,14.52h-.94c-.18,0-.33-.15-.33-.33h0v-.95c0-.18,.15-.33,.33-.33h.95c.18,0,.33,.15,.33,.33h0v.94c0,.18-.15,.33-.33,.33h0"/><path id="g" class="cls-1" d="M8.86,14.52h-.95c-.18,0-.33-.15-.33-.33h0v-.95c0-.18,.15-.33,.33-.33h.95c.18,0,.33,.15,.33,.33h0v.94c0,.18-.15,.33-.33,.33h0"/></g></svg>