<?xml version="1.0" encoding="UTF-8"?><svg id="_イヤー_2" xmlns="http://www.w3.org/2000/svg" viewBox="0 0 12 12"><defs><style>.cls-1{fill:#fff;}</style></defs><g id="_イヤー_2-2"><path id="_ス_570" class="cls-1" d="M12,6.85c0-.4-.16-.79-.44-1.07L6.41,.64c-.27-.26-.62-.42-.99-.44l-3.85-.2h-.05C.68,0,0,.68,0,1.52v.08l.2,3.83c.02,.37,.18,.73,.44,.99l5.14,5.14c.59,.59,1.55,.59,2.14,0l3.63-3.63-.28-.28,.28,.28c.28-.29,.44-.67,.44-1.07m-4.63,4.15c-.28,.28-.74,.28-1.02,0h0L1.2,5.85c-.13-.13-.2-.3-.21-.48l-.2-3.83v-.04c0-.4,.32-.73,.72-.73h.04l3.83,.2c.18,0,.35,.08,.48,.21l5.15,5.14c.28,.28,.28,.74,0,1.03h0l-3.63,3.63Z"/><path id="_ス_571" class="cls-1" d="M2.48,2.48c-.36,.36-.36,.94,0,1.3s.94,.36,1.3,0,.36-.94,0-1.3h0c-.36-.36-.94-.36-1.3,0"/></g></svg>