<?xml version="1.0" encoding="UTF-8"?><svg id="_イヤー_2" xmlns="http://www.w3.org/2000/svg" viewBox="0 0 13.56 16.73"><defs><style>.cls-1{fill:#707070;}</style></defs><g id="_イヤー_2-2"><path class="cls-1" d="M9.77,2.67c-.08-1.28-1.01-2.39-2.33-2.62-1.32-.23-2.58,.49-3.09,1.67L.3,1l-.3,1.67,13.26,2.34,.3-1.68-3.79-.67Zm-2.63-.95c.37,.07,.65,.31,.8,.62l-1.77-.31c.25-.24,.6-.38,.97-.31Z"/><path id="_ス_579" class="cls-1" d="M9.04,16.73H4.52c-1.4-.03-2.54-1.11-2.67-2.49L.94,5.23H12.62l-.91,9c-.13,1.39-1.28,2.46-2.68,2.49ZM2.82,6.93l.72,7.13c.04,.52,.46,.93,.98,.97h4.51c.52-.03,.94-.44,.98-.97l.72-7.13H2.82Z"/><path id="__333" class="cls-1" d="M4.45,13.97l-.18-5.88,1.7-.05,.18,5.88-1.7,.05Z"/><path id="__334" class="cls-1" d="M9.11,13.97l-1.7-.05,.18-5.88,1.7,.05-.18,5.88Z"/></g></svg>